# Blender 3.6.5
# www.blender.org
mtllib Models/A6M_ZERO/Propeller/Propeller.mtl
o A6M_ZERO_A6M_ZERO.015
v 0.001038 0.007880 0.034204
v -0.315561 2.004035 -0.026283
v -0.910489 1.809815 0.034204
v -1.416242 1.439198 0.094692
v -1.792962 0.923435 0.103860
v -1.994873 0.317704 0.080159
v -1.998962 -0.317081 0.050465
v -1.805902 -0.919394 0.037610
v -1.435591 -1.430762 0.050465
v -0.923246 -1.800586 0.080159
v -0.318003 -1.992121 0.103860
v 0.317637 -1.988275 0.094692
v 0.912564 -1.794055 0.034204
v 1.418317 -1.423438 -0.026283
v 1.795038 -0.907676 -0.035451
v 1.996948 -0.301944 -0.011750
v 2.001037 0.332841 0.017944
v 1.807978 0.935154 0.030792
v 1.437666 1.446523 0.017944
v 0.925321 1.816346 -0.011750
v 0.320078 2.007880 -0.035451
vn 0.0202 0.0101 0.9997
vn 0.0504 0.0382 0.9980
vn 0.0868 0.0439 0.9953
vn 0.0610 0.0182 0.9980
vn 0.0255 -0.0261 0.9993
vn 0.0159 -0.0456 0.9988
vn 0.0134 -0.0322 0.9994
vn 0.0015 0.0008 1.0000
vn -0.0185 0.0297 0.9994
vn -0.0278 0.0396 0.9988
vn -0.0064 0.0358 0.9993
vt 0.500000 0.500000
vt 0.652287 0.975524
vt 0.500000 1.000000
vt 0.347713 0.975524
vt 0.207648 0.904508
vt 0.095980 0.793893
vt 0.024521 0.654500
vt 0.000000 0.500000
vt 0.024521 0.345500
vt 0.095980 0.206107
vt 0.207648 0.095492
vt 0.347713 0.024476
vt 0.500000 0.000000
vt 0.652287 0.024476
vt 0.792352 0.095492
vt 0.904019 0.206107
vt 0.975479 0.345500
vt 1.000000 0.500000
vt 0.975479 0.654500
vt 0.904019 0.793893
vt 0.792352 0.904508
s 1
usemtl propeller_rotation
f 1/1/1 2/2/2 3/3/3
f 3/3/3 4/4/4 1/1/1
f 4/4/4 5/5/5 1/1/1
f 5/5/5 6/6/6 1/1/1
f 6/6/6 7/7/7 1/1/1
f 7/7/7 8/8/8 1/1/1
f 9/9/9 1/1/1 8/8/8
f 10/10/10 1/1/1 9/9/9
f 11/11/11 1/1/1 10/10/10
f 12/12/2 1/1/1 11/11/11
f 13/13/3 1/1/1 12/12/2
f 13/13/3 14/14/4 1/1/1
f 14/14/4 15/15/5 1/1/1
f 15/15/5 16/16/6 1/1/1
f 16/16/6 17/17/7 1/1/1
f 17/17/7 18/18/8 1/1/1
f 1/1/1 18/18/8 19/19/9
f 1/1/1 19/19/9 20/20/10
f 1/1/1 20/20/10 21/21/11
f 1/1/1 21/21/11 2/2/2
